<?xml version="1.0" encoding="utf-8"?>
<!-- Generator: Adobe Illustrator 19.2.1, SVG Export Plug-In . SVG Version: 6.00 Build 0)  -->
<svg version="1.1" id="Layer_1" xmlns="http://www.w3.org/2000/svg" xmlns:xlink="http://www.w3.org/1999/xlink" x="0px" y="0px"
	 viewBox="0 0 110.6 106.2" style="enable-background:new 0 0 110.6 106.2;" xml:space="preserve">
<style type="text/css">
	.st0{fill:#0D4A7D;}
	.st1{fill:#EEEEEE;}
	.st2{fill:#FFFFFF;}
</style>
<path class="st2" d="M110.6,83.4v-3.6l-5-1c-0.2-1.4-0.6-2.8-1.1-4.1l3.9-3.4l-1.8-3.1l-4.9,1.6c-0.9-1.1-1.9-2.1-3-3l1.6-4.9
	L97.1,60l-3.4,3.9c-1.3-0.5-2.7-0.9-4.1-1.1l-1-5.1h-3.6l-1,5.1c-1.4,0.2-2.8,0.6-4.1,1.1L76.3,60l-3.1,1.8l1.7,4.9
	c-1.1,0.9-2.1,1.9-3,3l-4.9-1.6l-1.8,3.1l3.9,3.4c-0.5,1.3-0.9,2.7-1.1,4.1l-5.1,1l0,3.6l5.1,1c0.2,1.4,0.6,2.8,1.1,4.1L65.1,92
	l1.8,3.1l4.9-1.7c0.9,1.1,1.9,2.1,3,3l-1.7,4.9l3.1,1.8l3.4-3.9c1.3,0.5,2.7,0.9,4.1,1.1l1,5.1h3.6l1-5.1c1.4-0.2,2.8-0.6,4.1-1.1
	l3.4,3.9l3.1-1.8l-1.7-4.9c1.1-0.9,2.1-1.9,3-3l4.9,1.7l1.8-3.1l-3.9-3.4c0.5-1.3,0.9-2.7,1.1-4.1L110.6,83.4z M86.7,94.9
	c-7.3,0-13.2-5.9-13.2-13.2c0-7.3,5.9-13.2,13.2-13.2c7.3,0,13.2,5.9,13.2,13.2C99.9,89,94,94.9,86.7,94.9z"/>
<path class="st2" d="M61.4,89.5H38.9V63.8h29.8v-6H38.9V29.9h29.8v27.2h6V29.9h29.8v32.2h6V0H0v95.6h61.4V89.5z M6,6h98.5v17.9H6V6z
	 M32.9,89.5H6V63.8h26.8V89.5z M32.9,57.7H6V29.9h26.8V57.7z"/>
</svg>
