<svg version="1.1" id="Layer_2" data-name="Layer 2" xmlns="http://www.w3.org/2000/svg" x="0px" y="0px"
     viewBox="0 0 110.6 106.2" style="enable-background:new 0 0 110.6 106.2;" xml:space="preserve">
<style type="text/css">
	.st0{fill:#FFFFFF;}
</style>
    <g>
	<path class="st0" d="M0,0v29.9v65.7h69.7v-6H38.9v-11h-6v10.9H6V29.9h62.7v12.9h6V29.9h29.8v27.8H84.7v6h19.9v16.7h6V29.9V0H0z
		 M6,23.9V6h98.5v17.9H6z"/>

        <rect x="62.8" y="31.2" transform="matrix(0.7071 -0.7071 0.7071 0.7071 -30.5749 70.5797)" class="st0" width="14.2" height="82"/>
        <path class="st0" d="M8.7,57.5c10.7,0,10.9,10.9,10.9,10.9c0-10.7,11-10.9,11-10.9s-11-0.2-11-10.9C19.6,46.6,19.5,57.5,8.7,57.5z"
        />
        <path class="st0" d="M32.4,69.9c6.1,0,6.2,6.2,6.2,6.2c0-6.1,6.3-6.2,6.3-6.2s-6.3-0.1-6.3-6.2C38.6,63.8,38.5,69.9,32.4,69.9z"/>
</g>
</svg>
