<svg id="Layer_1" data-name="Layer 1" xmlns="http://www.w3.org/2000/svg" viewBox="0 0 96.61 103"><defs><style>.cls-1,.cls-2{fill:none;stroke:#fff;stroke-miterlimit:10;}.cls-1{stroke-width:6px;}.cls-2{stroke-width:14px;}.cls-3{fill:#fff;}</style></defs><polyline class="cls-1" points="9.45 19.17 9.45 3 56.11 3 83.31 30.2 83.31 47.77"/><polyline class="cls-1" points="9.45 61.67 9.45 100 69.61 100"/><line class="cls-2" x1="33.14" y1="33.02" x2="91.67" y2="91.55"/><path class="cls-3" d="M1.86,45.67C11.91,45.67,12.1,55.9,12.1,55.9c0-10,10.33-10.23,10.33-10.23S12.1,45.48,12.1,35.43C12.1,35.43,11.91,45.67,1.86,45.67Z" transform="translate(-1.86 -4.42)"/><path class="cls-3" d="M24.12,57.31c5.73,0,5.82,5.82,5.82,5.82,0-5.72,5.92-5.82,5.92-5.82s-5.92-.09-5.92-5.82C29.85,51.58,29.85,57.31,24.12,57.31Z" transform="translate(-1.86 -4.42)"/><path class="cls-3" d="M16.61,26.79c5.73,0,5.82,5.83,5.82,5.83,0-5.73,5.92-5.83,5.92-5.83S22.43,26.7,22.43,21C22.43,21,22.34,26.79,16.61,26.79Z" transform="translate(-1.86 -4.42)"/></svg>
